<svg
	width="384pt"
	height="384pt"
	viewBox="0 0 384 384">
	<path
		transform="matrix(0.999999959542644 0 0 0.999999959542644 42.0601199493074 50.8067707913726)"
		fill="none" stroke="#000000" stroke-width="3" stroke-linecap="round"
		stroke-linejoin="bevel"
		d="M79.9401 0C71.2851 6.44881 54.3145 20.0253 35.3075 57.5302C16.3004 95.0352 1.50436 129.598 0.0643592 195.358C-1.37564 261.118 21.6644 291.358 37.5044 271.198C53.3444 251.038 83.1044 168.478 91.2644 149.758C99.4244 131.038 118.718 94.2715 111.42 102.417C104.123 110.563 100.39 126.77 99.8805 137.971C99.3713 149.171 95.7227 169.536 101.238 164.53C106.754 159.523 123.554 122.867 123.215 134.916C122.876 146.965 117.275 161.56 122.112 156.808C126.949 152.056 145.956 124.14 146.55 135.34C147.143 146.541 144.174 156.384 148.925 153.329C153.677 150.274 167.164 139.618 169.744 138.658C172.324 137.698 175.024 136.978 176.164 137.878C177.304 138.778 177.544 143.038 175.864 144.958C174.184 146.878 161.404 157.318 155.404 161.218C149.404 165.118 136.684 172.558 133.564 175.798C130.444 179.038 127.804 180.778 129.244 182.878C130.684 184.978 147.424 176.098 155.104 169.318C162.784 162.538 180.66 152.565 200.346 113.194C220.032 73.822 231.063 42.8507 231.572 53.1179C232.081 63.385 231.664 181.678 226.144 206.878C220.624 232.078 211.984 263.758 202.624 274.078C193.264 284.398 186.544 288.718 173.104 265.198C159.664 241.678 149.221 202.468 148.162 195.671C147.102 188.873 146.889 180.737 151.132 181.118C155.374 181.5 158.641 183.62 161.823 184.725C165.005 185.829 195.784 206.758 206.944 207.958C218.104 209.158 237.544 208.918 255.424 196.078C273.304 183.238 290.996 156.475 292.504 138.358C292.705 135.945 292.984 129.838 288.904 129.958C284.824 130.078 279.544 133.318 275.704 138.718C271.864 144.118 256.144 165.238 256.864 174.358C257.584 183.478 264.544 187.198 272.944 185.878C281.344 184.558 296.908 168.929 299.104 158.398C300.562 151.406 300.382 143.48 294.872 138.989C292.084 136.716 288.116 135.984 284.029 135.53C280.981 135.483 274.998 135.204 270.029 139.518"
	/>
</svg>