<svg xmlns="http://www.w3.org/2000/svg" viewBox="0 -960 960 960" fill="currentColor">
	<path
		d="M774-143 533-384q-30 26-69.959 40.5T378-329q-108.162 0-183.081-75Q120-479 120-585t75-181q75-75 181.5-75t181 75Q632-691 632-584.85 632-542 618-502q-14 40-42 75l243 241q9 8.5 8.5 21.25T818-143q-9 9-22.222 9-13.222 0-21.778-9ZM377-389q81.25 0 138.125-57.5T572-585q0-81-56.875-138.5T377-781q-82.083 0-139.542 57.5Q180-666 180-585t57.458 138.5Q294.917-389 377-389Zm-1.5-85q-12.5 0-21-8.625T346-504v-52h-53q-12 0-20.5-9t-8.5-21.5q0-12.5 8.625-21T294-616h52v-52q0-12 9-20.5t21.5-8.5q12.5 0 21 8.625T406-667v51h52q12 0 20.5 9t8.5 21.5q0 12.5-8.625 21T457-556h-51v53q0 12-9 20.5t-21.5 8.5Z" />
</svg>